<?xml version="1.0" encoding="iso-8859-1"?>
<!-- Uploaded to: SVG Repo, www.svgrepo.com, Generator: SVG Repo Mixer Tools -->
<svg fill="#000000" height="800px" width="800px" version="1.1" id="Layer_1" xmlns="http://www.w3.org/2000/svg" xmlns:xlink="http://www.w3.org/1999/xlink" 
	 viewBox="0 0 490 490" xml:space="preserve">
<g>
	<g>
		<path d="M387.579,0h-190v40h-45.177c-13.619-17.91-35.139-29.5-59.323-29.5H67.421v30h25.658c1.465,0,2.913,0.076,4.342,0.215V70
			h37.55c1.684,4.689,2.608,9.738,2.608,15s-0.924,10.311-2.608,15h-37.55v29.285c-1.429,0.139-2.877,0.215-4.342,0.215H67.421v30
			h25.658c24.184,0,45.705-11.59,59.323-29.5h45.177v40h50v11.324c-30.683,16.437-50,48.262-50,83.676v225h190V265
			c0-35.414-19.317-67.239-50-83.676V170h50v-40h35v-30h-35V0z M197.579,100h-31.517c0.995-4.847,1.517-9.863,1.517-15
			s-0.523-10.153-1.517-15h31.517V100z M357.579,265v195h-130V265c0-26.611,15.948-50.265,40.63-60.259l9.37-3.794V170h30v30.946
			l9.37,3.795C341.631,214.736,357.579,238.389,357.579,265z M357.579,140h-130V30h130V140z"/>
	</g>
</g>
</svg>